<?xml version="1.0" encoding="UTF-8"?>
<svg xmlns="http://www.w3.org/2000/svg" xmlns:xlink="http://www.w3.org/1999/xlink" width="16px" height="16px" viewBox="0 0 16 16" version="1.1">
<g id="surface1">
<path style=" stroke:none;fill-rule:nonzero;fill:rgb(92.54902%,34.509804%,38.823529%);fill-opacity:1;" d="M 5.835938 1.996094 C 6.417969 1.796875 7.0625 2.066406 7.269531 2.597656 C 7.425781 3.003906 7.285156 3.445312 6.949219 3.722656 L 7.128906 4.207031 L 7.421875 4.53125 C 7.488281 4.605469 7.585938 4.644531 7.6875 4.632812 C 7.957031 4.597656 8.226562 4.597656 8.492188 4.625 C 8.582031 4.632812 8.671875 4.605469 8.734375 4.542969 L 8.945312 4.347656 L 9.097656 3.910156 C 8.96875 3.734375 8.921875 3.5 9 3.28125 C 9.132812 2.90625 9.5625 2.710938 9.945312 2.863281 C 10.277344 2.996094 10.457031 3.355469 10.359375 3.6875 C 10.296875 3.902344 10.144531 4.058594 9.953125 4.140625 L 9.78125 4.625 L 9.820312 4.890625 C 9.832031 4.984375 9.890625 5.0625 9.972656 5.109375 C 10.246094 5.273438 10.5 5.472656 10.71875 5.703125 C 10.792969 5.78125 10.90625 5.8125 11.011719 5.792969 L 11.5625 5.683594 L 12.183594 5.347656 C 12.1875 5.050781 12.347656 4.761719 12.636719 4.609375 C 13.070312 4.371094 13.621094 4.53125 13.851562 4.960938 C 14.0625 5.347656 13.929688 5.835938 13.550781 6.074219 C 13.257812 6.261719 12.894531 6.253906 12.617188 6.097656 L 11.992188 6.433594 L 11.644531 6.792969 C 11.550781 6.890625 11.515625 7.027344 11.554688 7.15625 C 11.554688 7.15625 11.554688 7.160156 11.554688 7.160156 C 11.613281 7.378906 11.652344 7.601562 11.667969 7.824219 C 11.675781 7.953125 11.753906 8.070312 11.871094 8.136719 L 12.328125 8.375 L 13.230469 8.539062 C 13.386719 8.40625 13.605469 8.339844 13.832031 8.378906 C 14.230469 8.453125 14.492188 8.84375 14.386719 9.230469 C 14.300781 9.566406 13.960938 9.789062 13.609375 9.746094 C 13.367188 9.714844 13.175781 9.574219 13.070312 9.382812 L 12.160156 9.21875 L 11.601562 9.285156 C 11.5 9.296875 11.40625 9.359375 11.367188 9.453125 C 11.199219 9.816406 10.96875 10.148438 10.679688 10.4375 C 10.609375 10.511719 10.585938 10.613281 10.609375 10.710938 L 10.75 11.234375 L 11.09375 11.757812 C 11.472656 11.703125 11.863281 11.863281 12.082031 12.195312 C 12.375 12.640625 12.242188 13.234375 11.785156 13.523438 C 11.328125 13.808594 10.707031 13.683594 10.410156 13.242188 C 10.199219 12.933594 10.199219 12.554688 10.367188 12.25 L 10.003906 11.695312 L 9.554688 11.335938 C 9.488281 11.28125 9.398438 11.269531 9.316406 11.296875 C 9.226562 11.328125 9.132812 11.355469 9.039062 11.378906 C 8.53125 11.511719 8.015625 11.527344 7.527344 11.449219 C 7.457031 11.4375 7.382812 11.457031 7.328125 11.503906 L 7.085938 11.707031 L 6.90625 12.132812 C 7.027344 12.316406 7.058594 12.550781 6.96875 12.769531 C 6.816406 13.132812 6.375 13.304688 6 13.132812 C 5.679688 12.980469 5.519531 12.613281 5.636719 12.285156 C 5.710938 12.078125 5.875 11.925781 6.070312 11.859375 L 6.265625 11.382812 L 6.230469 10.964844 C 5.871094 10.75 5.554688 10.46875 5.292969 10.140625 L 4.683594 10.199219 L 4.109375 10.472656 C 4.113281 10.847656 3.914062 11.203125 3.570312 11.375 C 3.078125 11.617188 2.476562 11.402344 2.222656 10.894531 C 1.972656 10.386719 2.164062 9.777344 2.65625 9.535156 C 3.019531 9.351562 3.449219 9.425781 3.75 9.6875 L 4.289062 9.429688 L 4.664062 9.039062 C 4.6875 9.011719 4.699219 8.976562 4.6875 8.945312 L 4.6875 8.941406 C 4.515625 8.316406 4.53125 7.683594 4.707031 7.101562 C 4.714844 7.066406 4.707031 7.035156 4.6875 7.007812 L 4.363281 6.632812 L 3.667969 6.277344 C 3.476562 6.359375 3.246094 6.359375 3.046875 6.257812 C 2.6875 6.074219 2.554688 5.628906 2.769531 5.285156 C 2.960938 4.984375 3.363281 4.871094 3.691406 5.023438 C 3.902344 5.125 4.039062 5.3125 4.078125 5.519531 L 4.773438 5.875 L 5.269531 5.917969 C 5.304688 5.921875 5.339844 5.910156 5.359375 5.882812 C 5.585938 5.613281 5.855469 5.375 6.15625 5.179688 C 6.242188 5.125 6.292969 5.035156 6.292969 4.9375 L 6.300781 4.5 L 6.105469 3.984375 C 5.683594 3.953125 5.300781 3.707031 5.152344 3.320312 C 4.945312 2.789062 5.25 2.195312 5.835938 1.996094 Z M 5.835938 1.996094 "/>
<path style=" stroke:none;fill-rule:nonzero;fill:rgb(96.078431%,54.117647%,59.215686%);fill-opacity:1;" d="M 10.664062 7.390625 C 10.285156 6.03125 8.84375 5.222656 7.441406 5.585938 C 6.035156 5.949219 5.203125 7.351562 5.578125 8.710938 C 5.957031 10.074219 7.398438 10.878906 8.800781 10.515625 C 10.207031 10.152344 11.039062 8.75 10.664062 7.390625 Z M 10.664062 7.390625 "/>
<path style=" stroke:none;fill-rule:nonzero;fill:rgb(94.117647%,44.705882%,50.588235%);fill-opacity:1;" d="M 8.59375 9.765625 C 7.320312 10.09375 6.019531 9.460938 5.503906 8.328125 C 5.519531 8.457031 5.542969 8.582031 5.578125 8.710938 C 5.957031 10.074219 7.398438 10.878906 8.800781 10.515625 C 10.207031 10.152344 11.039062 8.75 10.664062 7.390625 C 10.628906 7.261719 10.582031 7.140625 10.53125 7.023438 C 10.667969 8.253906 9.867188 9.433594 8.59375 9.765625 Z M 8.59375 9.765625 "/>
<path style=" stroke:none;fill-rule:nonzero;fill:rgb(92.156863%,33.333333%,41.176471%);fill-opacity:1;" d="M 4.644531 13.398438 C 4.539062 13.011719 4.128906 12.78125 3.726562 12.882812 C 3.328125 12.988281 3.089844 13.386719 3.199219 13.773438 C 3.304688 14.164062 3.714844 14.390625 4.117188 14.289062 C 4.515625 14.183594 4.753906 13.785156 4.644531 13.398438 Z M 4.644531 13.398438 "/>
<path style=" stroke:none;fill-rule:nonzero;fill:rgb(92.156863%,33.333333%,41.176471%);fill-opacity:1;" d="M 13.992188 11.175781 C 13.921875 10.917969 13.652344 10.765625 13.386719 10.835938 C 13.125 10.90625 12.96875 11.167969 13.039062 11.421875 C 13.109375 11.679688 13.378906 11.832031 13.644531 11.761719 C 13.90625 11.695312 14.066406 11.429688 13.992188 11.175781 Z M 13.992188 11.175781 "/>
<path style=" stroke:none;fill-rule:nonzero;fill:rgb(92.156863%,33.333333%,41.176471%);fill-opacity:1;" d="M 12.652344 2.402344 C 12.550781 2.023438 12.148438 1.800781 11.761719 1.902344 C 11.371094 2.003906 11.140625 2.390625 11.246094 2.765625 C 11.347656 3.144531 11.75 3.367188 12.136719 3.265625 C 12.527344 3.164062 12.757812 2.777344 12.652344 2.402344 Z M 12.652344 2.402344 "/>
<path style=" stroke:none;fill-rule:nonzero;fill:rgb(92.156863%,33.333333%,41.176471%);fill-opacity:1;" d="M 8.285156 8.820312 C 8.1875 8.46875 7.816406 8.257812 7.453125 8.351562 C 7.089844 8.445312 6.875 8.808594 6.972656 9.160156 C 7.070312 9.511719 7.441406 9.71875 7.804688 9.625 C 8.167969 9.53125 8.382812 9.171875 8.285156 8.820312 Z M 8.285156 8.820312 "/>
<path style=" stroke:none;fill-rule:nonzero;fill:rgb(92.156863%,33.333333%,41.176471%);fill-opacity:1;" d="M 9.972656 7.832031 C 9.90625 7.59375 9.652344 7.453125 9.40625 7.515625 C 9.160156 7.578125 9.015625 7.824219 9.078125 8.066406 C 9.144531 8.304688 9.398438 8.445312 9.648438 8.382812 C 9.894531 8.316406 10.039062 8.070312 9.972656 7.832031 Z M 9.972656 7.832031 "/>
<path style=" stroke:none;fill-rule:nonzero;fill:rgb(92.156863%,33.333333%,41.176471%);fill-opacity:1;" d="M 8.1875 6.839844 C 8.132812 6.636719 7.917969 6.519531 7.710938 6.570312 C 7.503906 6.625 7.382812 6.832031 7.4375 7.035156 C 7.492188 7.234375 7.707031 7.355469 7.914062 7.300781 C 8.121094 7.246094 8.242188 7.039062 8.1875 6.839844 Z M 8.1875 6.839844 "/>
</g>
</svg>
